# xmcd
#
# Track frame offsets: 
#        150
#        4131
#        42588
#        56801
#        89163
#        111867
#        141517
#        166575
#        187538
#
# Disc length: 2739 seconds
#
# Revision: 0
# Processed by: cddbd v1.5.1PL2 Copyright (c) Steve Scherf et al.
# Submitted via: ExactAudioCopy v0.95b4
#
DISCID=770ab109
DTITLE=Muddy Waters - Maison De Radio FM, Blues and Jazz Festival, Paris
DTITLE=, France, November 7th 1976 [CD1]
DYEAR=1900
DGENRE=
TTITLE0=French DJ - Band Intro
TTITLE1=Give Me a Personal Paper
TTITLE2=Key To The Highway
TTITLE3=They Call Me Muddy Waters
TTITLE4=That Same Thing
TTITLE5=My Baby
TTITLE6=Honey Bee
TTITLE7=Walkin' Blues
TTITLE8=Rollin' And Tumblin'
EXTD=
EXTT0=
EXTT1=
EXTT2=
EXTT3=
EXTT4=
EXTT5=
EXTT6=
EXTT7=
EXTT8=
PLAYORDER=
